<svg xmlns="http://www.w3.org/2000/svg" viewBox="0 0 567.9 297.4"><path d="M47.54,187.19H12.92v11.36h33c5.18,0,8.67.89,10.5,2.65s2.72,5.06,2.72,9.86v7.26q0,7.2-2.72,9.86c-1.83,1.77-5.32,2.65-10.5,2.65H13.21q-7.76,0-10.48-2.65T0,218.32V214.6H10.86v6.26H48.24V208.8h-33c-5.14,0-8.61-.87-10.42-2.64s-2.7-5-2.7-9.86v-5.85c0-4.81.91-8.09,2.7-9.86s5.28-2.65,10.42-2.65h30q7.45,0,10.28,2.55c1.89,1.7,2.83,4.73,2.83,9.06v3.65H47.54v-6Z" style="fill:#104f24"></path><path d="M128,187.85H93.4v32.89H128V209.55h13v8.83c0,4.78-1,8-2.86,9.81s-5.55,2.65-10.94,2.65H94.25c-5.31,0-8.91-.88-10.82-2.61s-2.85-5-2.85-9.85V190.59q0-7.17,2.83-9.79c1.88-1.73,5.49-2.61,10.84-2.61h32.89c5.43,0,9.09.88,11,2.61s2.83,5,2.83,9.79v7H128v-9.73Z" style="fill:#104f24"></path><polygon points="162.42 230.83 162.42 178.19 175.36 178.19 175.36 198.19 215.42 198.19 215.42 178.19 228.24 178.19 228.24 230.83 215.42 230.83 215.42 208.64 175.36 208.64 175.36 230.83 162.42 230.83 162.42 230.83" style="fill:#104f24"></polygon><polygon points="311.68 191.86 324.07 191.86 324.07 177.94 311.68 177.94 311.68 191.86 311.68 191.86" style="fill:#104f24"></polygon><polygon points="250.68 191.86 263.08 191.86 263.08 177.94 250.68 177.94 250.68 191.86 250.68 191.86" style="fill:#104f24"></polygon><path d="M274.63,209.67l11.87-21.94,12.28,21.94Zm18.67-31.48H281l-31.24,52.64h12.83l6.62-11.55H304l6.63,11.55H325l-31.7-52.64Z" style="fill:#104f24"></path><polygon points="345 230.83 345 178.19 400.86 178.19 400.86 187.61 357.94 187.61 357.94 201.35 381.03 201.35 381.03 211.13 357.94 211.13 357.94 230.83 345 230.83 345 230.83" style="fill:#104f24"></polygon><polygon points="417.9 230.83 417.9 178.19 474.37 178.19 474.37 187.48 430.85 187.48 430.85 198.98 456.2 198.98 456.2 208.03 430.85 208.03 430.85 220.98 475.04 220.98 475.04 230.83 417.9 230.83 417.9 230.83" style="fill:#104f24"></polygon><path d="M494.24,230.83V178.19h47.41c4.34,0,7.47.8,9.42,2.4s2.92,4.2,2.92,7.8V200.8c0,3.57-1,6.13-2.92,7.72s-5.08,2.38-9.42,2.38h-7.23l25,19.93H541L519,210.9H506.89v19.93Zm42-43.58h-29.3v14.59h29.3c2.22,0,3.75-.33,4.58-1a3.9,3.9,0,0,0,1.24-3.28V191.5a3.9,3.9,0,0,0-1.24-3.28c-.83-.66-2.36-1-4.58-1Z" style="fill:#104f24"></path><path d="M179.62,286.38h.55q3.06,0,3.06-3.13V276H169.82v7.32a3.11,3.11,0,0,0,.72,2.34,3.48,3.48,0,0,0,2.41.69h.59V288h-13v-1.59h.69c2,0,3-1,3-3v-16.2a2.65,2.65,0,0,0-3-3h-.65v-1.59h13v1.59H173a3.45,3.45,0,0,0-2.46.7,3.05,3.05,0,0,0-.71,2.28v6.37h13.41v-6.25a3.22,3.22,0,0,0-.74-2.4,3.6,3.6,0,0,0-2.52-.7h-.35v-1.59h13v1.59h-.73a3.2,3.2,0,0,0-2.34.7,3.1,3.1,0,0,0-.7,2.28v16.09a3.1,3.1,0,0,0,.73,2.35,3.42,3.42,0,0,0,2.39.68h.65V288h-13v-1.62Z" style="fill:#104f24"></path><path d="M204.37,272.69a3.35,3.35,0,0,0-2.79,1.27,5.63,5.63,0,0,0-1,3.58,13.5,13.5,0,0,0,1.46,6.3q1.47,2.82,3.93,2.82a3.17,3.17,0,0,0,2.72-1.31,6.17,6.17,0,0,0,1-3.71,12.47,12.47,0,0,0-1.5-6.45,4.4,4.4,0,0,0-3.79-2.5Zm.44,15.74a10,10,0,0,1-6.9-2.4,7.81,7.81,0,0,1-2.7-6.11,8.2,8.2,0,0,1,2.93-6.39,10.67,10.67,0,0,1,7.28-2.58,10,10,0,0,1,6.88,2.39,7.71,7.71,0,0,1,2.7,6.06,8.25,8.25,0,0,1-2.92,6.43,10.51,10.51,0,0,1-7.28,2.6Z" style="fill:#104f24"></path><path d="M224.7,260.79v23a3.28,3.28,0,0,0,.57,2.21,2.48,2.48,0,0,0,1.87.63V288H217v-1.31h.42a2.2,2.2,0,0,0,1.77-.62,3.6,3.6,0,0,0,.51-2.22V267.08a5.23,5.23,0,0,0-.18-1.76,1.52,1.52,0,0,0-.89-.68l-1.75-.64v-1.19l7-2Z" style="fill:#104f24"></path><path d="M229,288v-1.31l10.74-13h-5.65a2.57,2.57,0,0,0-1.87.66,10.16,10.16,0,0,0-1.63,2.79h-1.33l1.33-6.83h1.35a1.13,1.13,0,0,0-.06.36c0,.52.46.78,1.39.78h13.59v1.15L236,285.73h5.23a5.2,5.2,0,0,0,2.82-.55,12.16,12.16,0,0,0,2.34-2.86h1.25L245.73,288Z" style="fill:#104f24"></path><path d="M270.16,276.26v4.89a7.84,7.84,0,0,0,.86,4.2,3.1,3.1,0,0,0,2.79,1.31,4,4,0,0,0,3.37-1.61,7.39,7.39,0,0,0,1.21-4.52,7.6,7.6,0,0,0-1.31-4.6,4,4,0,0,0-3.35-1.77,4.5,4.5,0,0,0-3.57,2.1Zm-5,10.86v-20.4a3.35,3.35,0,0,0-.29-1.79,8.23,8.23,0,0,0-2.23-1.18v-1l6.17-2h1.31v13.57q3.64-3.4,6.78-3.41a5.87,5.87,0,0,1,4.63,2.27,8.31,8.31,0,0,1,1.9,5.53,9.11,9.11,0,0,1-2.93,6.9,10.11,10.11,0,0,1-7.27,2.78,34,34,0,0,1-8.07-1.31Z" style="fill:#104f24"></path><path d="M292.14,277.89h5.78a7.66,7.66,0,0,0-.83-3.73,2.34,2.34,0,0,0-2.07-1.31,2.58,2.58,0,0,0-2.17,1.45A5.62,5.62,0,0,0,292.14,277.89Zm10.08,4.61.93.75a13.18,13.18,0,0,1-4.07,3.83,9.1,9.1,0,0,1-4.62,1.35,6.82,6.82,0,0,1-5.36-2.32,8.67,8.67,0,0,1-2.08-6,9.13,9.13,0,0,1,2.45-6.57,8.25,8.25,0,0,1,6.24-2.57,7.63,7.63,0,0,1,4.44,1.31,6.32,6.32,0,0,1,2.45,4.24c.2,1,.51,1.64.93,1.81v1.17H292.26a7.48,7.48,0,0,0,1.78,4.26,4.3,4.3,0,0,0,3.22,1.65c1.44,0,3.1-1,5-2.89Z" style="fill:#104f24"></path><path d="M312.92,288.25l-5.62-13.08c-.73-1.65-1.78-2.48-3.17-2.48v-1.3h9.73v1.3c-1.06.07-1.59.51-1.59,1.33a1.76,1.76,0,0,0,.2.81l3.24,7.76,3.26-7.38c-.62-1.68-1.48-2.52-2.56-2.52v-1.3h9.23v1.3c-1.21,0-1.81.41-1.81,1.23a3.17,3.17,0,0,0,.3,1.21l3.07,7.47,2.85-7a3.29,3.29,0,0,0,.28-1.23c0-1.09-.77-1.66-2.32-1.73v-1.3h7.49v1.3a3.49,3.49,0,0,0-2.16.85,8.27,8.27,0,0,0-1.49,2.61l-5.12,12.1h-2.25l-4.54-10.57-4.88,10.57Z" style="fill:#104f24"></path><path d="M340.9,277.89h5.77a7.55,7.55,0,0,0-.83-3.73,2.34,2.34,0,0,0-2.07-1.31,2.58,2.58,0,0,0-2.17,1.45,5.62,5.62,0,0,0-.7,3.59ZM351,282.5l.94.75a13.21,13.21,0,0,1-4.08,3.83,9.06,9.06,0,0,1-4.61,1.35,6.83,6.83,0,0,1-5.37-2.32,8.71,8.71,0,0,1-2.07-6,9.11,9.11,0,0,1,2.45-6.57A8.22,8.22,0,0,1,344.5,271a7.6,7.6,0,0,1,4.43,1.31,6.32,6.32,0,0,1,2.45,4.24c.2,1,.51,1.64.93,1.81v1.17H341a7.48,7.48,0,0,0,1.78,4.26,4.3,4.3,0,0,0,3.22,1.65c1.44,0,3.1-1,5-2.89Z" style="fill:#104f24"></path><path d="M363.28,272.69a2.62,2.62,0,0,0-2.21,1,4.54,4.54,0,0,0-.79,2.84q0,4.47,3.37,4.47c1.9,0,2.84-1.19,2.84-3.57a6.3,6.3,0,0,0-.84-3.52,2.69,2.69,0,0,0-2.37-1.25Zm4.06,17.49h-3.25a16.24,16.24,0,0,1-3.61-.34,3.08,3.08,0,0,0-1.59,2.28,2.93,2.93,0,0,0,1.78,2.45,8.23,8.23,0,0,0,4.23,1,8,8,0,0,0,4.17-1,2.85,2.85,0,0,0,1.65-2.43c0-1.35-1.13-2-3.38-2Zm7.44-19.07v4.18l-4.06-.93a4.25,4.25,0,0,1,.81,2.6,4.78,4.78,0,0,1-2.24,4.08,10.92,10.92,0,0,1-6.33,1.58,7.37,7.37,0,0,0-1.3.44,8.06,8.06,0,0,0-1.62.78.94.94,0,0,0-.45.68q0,1.35,5,1.35h3.58a7.27,7.27,0,0,1,4.45,1.28,4,4,0,0,1,1.72,3.42c0,1.91-1.09,3.51-3.27,4.82a15.59,15.59,0,0,1-8.18,2,13.47,13.47,0,0,1-6-1.18c-1.58-.79-2.37-1.75-2.37-2.89A2.41,2.41,0,0,1,355,292a4.5,4.5,0,0,1,1.84-1.26,3.69,3.69,0,0,0,1.78-1.31c-2.33-.81-3.49-2.08-3.49-3.83a2.14,2.14,0,0,1,1.18-1.89,18.2,18.2,0,0,1,4.34-1.52v-.08a5.76,5.76,0,0,1-3.77-1.66,4.59,4.59,0,0,1-1.55-3.3,5.35,5.35,0,0,1,2.38-4.42,9.62,9.62,0,0,1,5.91-1.79,8.8,8.8,0,0,1,5.48,1.63l5.73-1.47Z" style="fill:#104f24"></path><path d="M383.44,273.63v9.84c0,1.43.62,2.14,1.86,2.14.94,0,2-.67,3.08-2l.57,1.13a7.4,7.4,0,0,1-2.6,2.7,6.29,6.29,0,0,1-3.29,1c-3.06,0-4.58-1.68-4.58-5v-9.76h-2.17v-1.05A10.92,10.92,0,0,0,379.9,270a10.34,10.34,0,0,0,2.35-3.62h1.19v5.08h5.31l-.61,2.24Z" style="fill:#104f24"></path><path d="M392.42,285.65a2.42,2.42,0,0,1,1-1.93,3.44,3.44,0,0,1,2.28-.79,3.52,3.52,0,0,1,2.35.79,2.39,2.39,0,0,1,.94,1.93,2.54,2.54,0,0,1-.93,2,3.5,3.5,0,0,1-2.36.81,3.39,3.39,0,0,1-2.32-.8,2.56,2.56,0,0,1-.92-2Z" style="fill:#104f24"></path><path d="M279.73,0A64.37,64.37,0,1,0,344.1,64.37h0A64.45,64.45,0,0,0,279.73,0Zm48.71,83.18-95.9,3.55a52.46,52.46,0,0,1-4-11.82l103.37-9.69A52.34,52.34,0,0,1,328.44,83.18Zm-97.31-37.9,95.81-3.23a52.24,52.24,0,0,1,3.79,11.09L227.54,62.81A52.12,52.12,0,0,1,231.13,45.28Zm48.6-33.13a52.09,52.09,0,0,1,39.42,18L238.09,32.9A52.14,52.14,0,0,1,279.73,12.15Zm0,104.45a52.13,52.13,0,0,1-39.4-18l81.25-3A52.22,52.22,0,0,1,279.73,116.6Z" style="fill:#104f24"></path><path d="M558,158.28a10,10,0,0,1,9.9,9.95,9.62,9.62,0,0,1-2.91,7,9.52,9.52,0,0,1-7,2.92,10,10,0,1,1,0-19.91Zm0,1.37a8.09,8.09,0,0,0-6,2.51,8.71,8.71,0,0,0,0,12.15,8.32,8.32,0,0,0,11.77.14l.14-.14a8.72,8.72,0,0,0,0-12.14A8,8,0,0,0,558,159.65Zm-4.73,14.06V162.57H559q3.75,0,3.75,3.46,0,2.52-1.71,3a2,2,0,0,1,1.58,2.18v2.48h-2.34v-2.06A1.42,1.42,0,0,0,559,170a1.79,1.79,0,0,0-.4,0h-3v3.64Zm2.34-5.64h3q1.86,0,1.86-1.77a1.53,1.53,0,0,0-1.28-1.73,1.62,1.62,0,0,0-.44,0h-3.13Z" style="fill:#0c4f24"></path></svg>